<svg width="11" height="11" viewBox="0 0 11 11" fill="none" xmlns="http://www.w3.org/2000/svg">
    <path fill-rule="evenodd" clip-rule="evenodd"
          d="M7.54488 4.16389C7.54488 5.88715 6.10418 7.32777 4.27244 7.32777C2.4407 7.32777 1 5.88715 1 4.16389C1 2.44062 2.4407 1 4.27244 1C6.10418 1 7.54488 2.44062 7.54488 4.16389ZM6.71217 7.58256C6.02045 8.05232 5.17945 8.32777 4.27244 8.32777C1.91284 8.32777 0 6.46354 0 4.16389C0 1.86424 1.91284 0 4.27244 0C6.63204 0 8.54488 1.86424 8.54488 4.16389C8.54488 5.22339 8.13885 6.19047 7.47016 6.9254L10.7056 10.0786L9.98942 10.7766L6.71217 7.58256Z"
          fill="black"/>
</svg>
